<svg xmlns="http://www.w3.org/2000/svg" width="28.768" height="23.629" viewBox="0 0 28.768 23.629">
  <g id="logo" transform="translate(62.638 -55.884)" opacity="0.91">
    <g id="Groupe_2" data-name="Groupe 2" transform="translate(-62.638 55.884)">
      <g id="Groupe_1" data-name="Groupe 1" transform="translate(0 0)">
        <path id="Tracé_1" data-name="Tracé 1" d="M97.668,157.806V146.621a.187.187,0,0,0-.331-.115l-12.22,15.268a.185.185,0,0,0,.144.3h8.827a.756.756,0,0,0,.6-.3l2.789-3.479a.737.737,0,0,0,.187-.489Zm-28.581.5,9.172,11.473a.771.771,0,0,0,.618.288H87.7a.175.175,0,0,0,.144-.288L69.231,146.52a.187.187,0,0,0-.331.115V157.82a.9.9,0,0,0,.187.489Zm0,0" transform="translate(-68.9 -146.439)" fill="#ece8e1"/>
      </g>
    </g>
  </g>
</svg>
